<?xml version="1.0" encoding="UTF-8" standalone="no"?>
<!-- Created with Inkscape (http://www.inkscape.org/) -->

<svg
   width="83.98497mm"
   height="282.37585mm"
   viewBox="0 0 83.98497 282.37585"
   version="1.1"
   id="svg1"
   xmlns="http://www.w3.org/2000/svg"
   xmlns:svg="http://www.w3.org/2000/svg">
  <defs
     id="defs1" />
  <g
     id="layer1"
     transform="translate(-3.043945,-4.1560556)">
    <path
       style="color:#000000;display:inline;opacity:1;fill:#000000;-inkscape-stroke:none"
       d="m 29.960547,71.28737 c 4.45435,3.152949 6.834986,4.999225 10.240234,11.662239 1.081533,-1.66571 2.971994,-4.073218 4.259921,-4.087929 1.287926,-0.01471 2.215025,0.801801 2.765232,1.449487 0.38391,0.451926 0.677385,1.378782 0.644745,2.192328 -0.03264,0.813546 -0.598581,1.212141 -1.690354,0.855996 -1.091773,-0.356145 -1.940194,-2.588725 -1.940194,-2.588725 0,0 -2.219718,4.297246 -4.338439,4.183921 -2.11872,-0.113325 -5.814683,-5.580405 -8.042855,-9.10692 -9.395657,3.211558 -19.197989,5.814782 -28.8148919,7.899304 9.4950889,2.658204 18.5450129,6.880742 27.6812409,10.376288 3.919678,-4.44733 6.928294,-6.425824 8.814606,-6.412118 1.886312,0.01371 2.67109,1.264669 2.23533,2.668377 -0.435759,1.403708 -4.48811,4.636423 -7.2045,6.245971 2.843939,5.945881 6.539543,21.590171 8.836735,33.538591 2.410503,-11.52463 5.889808,-24.09481 8.655549,-33.77711 -2.644768,-2.069151 -6.271413,-5.128005 -6.20276,-6.452295 0.06865,-1.32429 0.837327,-2.162861 2.072523,-2.027087 1.235196,0.135774 5.160132,6.052702 5.897438,12.553472 0.737306,6.50077 -12.807339,50.44999 -12.807339,50.44999 8.711243,50.50834 6.716626,92.73304 3.377918,135.62077 0,0 3.115623,-48.55304 6.958837,-68.12199 -5.231125,-19.60832 -6.603854,-54.27601 -6.240558,-67.30752 0.348421,-12.49796 10.374737,-50.0494 12.925956,-55.516342 -2.976562,-0.969573 -6.943316,-5.09408 -7.95625,-8.123027 -1.012934,-3.028947 -0.752206,-2.948429 0.765105,-2.90601 1.517311,0.04242 4.006982,4.374506 5.714665,7.509337 4.292215,-2.91584 30.460467,-8.332801 30.460467,-8.332801 0,0 -28.019527,-6.818388 -30.331522,-9.343383 -2.371149,3.165689 -4.134123,5.663228 -5.120532,5.701994 -0.986409,0.03877 -2.216265,0.129986 -2.850529,-0.70562 -0.789286,-1.039839 -0.514256,-2.445845 -0.366478,-3.23036 0.147778,-0.784515 2.670775,-3.997606 5.568455,-6.004416 -3.204303,-9.020176 -5.658859,-20.814342 -7.36241,-31.344985 -2.818582,10.466265 -5.818531,21.00472 -10.290707,31.027759 1.460244,1.767036 6.20918,5.890128 6.297904,7.173464 0.08872,1.283336 -0.817362,1.490701 -1.660226,1.323453 C 40.069999,78.164225 37.216902,75.764045 34.993139,69.689106 32.769376,63.614167 44.12407,34.743689 48.05746,29.129032 45.320121,25.367668 42.956058,4.1560557 42.956058,4.1560557 c 0,0 1.923317,20.6054473 1.194,25.7394483 C 43.420741,35.029505 30.75288,71.575491 29.960547,71.28737 Z M 45.665295,53.96432 c 1.443536,0.05373 3.902501,11.315653 4.179271,14.693486 0.27677,3.377833 -3.737016,6.376445 -5.218051,6.300116 -1.481035,-0.07633 -4.60176,-3.251192 -4.5497,-6.497922 0.05206,-3.24673 4.144944,-14.549411 5.58848,-14.49568 z m 13.042778,24.652347 c 2.479737,-0.01305 15.18149,3.058834 15.067895,4.547609 -0.113595,1.488775 -12.106352,4.441761 -14.978311,4.185072 -2.871959,-0.256689 -5.016263,-2.811106 -5.030811,-4.467458 -0.01455,-1.656352 2.46149,-4.252178 4.941227,-4.265223 z m -27.74998,1.822577 c 4.300272,1.017817 4.751249,3.751471 4.654801,5.366874 -0.09645,1.615403 -2.016137,3.631028 -5.729176,4.024822 -3.713039,0.393794 -15.230943,-3.756218 -15.026304,-5.977529 0.204639,-2.221311 11.800407,-4.431984 16.100679,-3.414167 z m 13.188391,3.812809 c 1.345617,-0.03965 2.009513,0.968167 1.999692,2.079617 -0.0098,1.111449 -0.938532,1.963163 -1.947832,2.017373 -1.0093,0.05421 -2.130784,-1.072948 -2.124795,-2.036803 0.006,-0.963855 0.727318,-2.020541 2.072935,-2.060187 z m -0.499692,7.652343 c 2.035095,-0.09428 4.463828,2.058133 4.465976,5.753598 0.0021,3.695466 -1.651015,15.648566 -4.529174,15.561526 -2.878159,-0.087 -4.506432,-13.10516 -4.413365,-15.723119 0.09307,-2.617958 2.441469,-5.497725 4.476563,-5.592005 z"
       id="path1" />
  </g>
</svg>
