<?xml version="1.0" encoding="UTF-8" standalone="no"?>
<!-- Created with Inkscape (http://www.inkscape.org/) -->

<svg
   width="73.538345mm"
   height="284.95569mm"
   viewBox="0 0 73.538345 284.95569"
   version="1.1"
   id="svg1"
   xmlns="http://www.w3.org/2000/svg"
   xmlns:svg="http://www.w3.org/2000/svg">
  <defs
     id="defs1" />
  <g
     id="layer1"
     transform="translate(-7.4113862,-4.0435421)">
    <path
       style="display:inline;fill:none;fill-opacity:1;stroke:#000000;stroke-width:1.165"
       d="m 42.843304,4.1159506 3.17386,25.3344654 C 41.088301,42.08198 36.426377,54.456813 32.530729,70.532428 l 7.786878,9.541521 c 4.524667,-2.68841 8.384815,-4.981474 11.693041,-10.196333 -1.601193,-6.555941 -3.962687,-14.775926 -5.667457,-23.18019 -2.471655,6.880388 -6.441471,15.542762 -8.083558,22.993103 1.426239,4.52017 13.024173,11.368805 18.708865,19.64431 8.799699,-1.638838 14.746888,-3.848178 21.982919,-5.799749 -6.896377,-2.345483 -12.864767,-5.309625 -21.702286,-6.361014 -8.776717,5.582701 -12.510314,12.367652 -20.11203,19.737853 1.994548,10.596701 3.865475,16.543941 6.267469,25.292961 2.6877,-8.85217 5.34799,-15.65123 6.92228,-25.573594 C 45.679669,90.523807 39.223017,85.236354 31.430896,78.390151 23.123998,78.65815 16.284006,81.848263 9.3184393,84.119052 16.864786,86.500346 22.862147,90.5244 29.437118,91.938029 c 6.406187,-6.156984 11.990335,-4.632745 14.99644,-9.057751 4.527973,3.097283 7.352763,9.237275 11.109079,13.789766 -3.394352,18.962746 -10.329939,43.230096 -12.325154,54.216966 -0.642112,26.57661 4.216142,44.82379 5.993484,67.36797 l -4.964498,70.70346"
       id="path4" />
  </g>
</svg>
