<?xml version="1.0" standalone="no"?>
<!DOCTYPE svg PUBLIC "-//W3C//DTD SVG 20010904//EN"
 "http://www.w3.org/TR/2001/REC-SVG-20010904/DTD/svg10.dtd">
<svg version="1.0" xmlns="http://www.w3.org/2000/svg"
 width="735.000000pt" height="577.000000pt" viewBox="0 0 735.000000 577.000000"
 preserveAspectRatio="xMidYMid meet">

<g transform="translate(0.000000,577.000000) scale(0.100000,-0.100000)"
fill="#000000" stroke="none">
<path d="M2775 5303 c-83 -10 -239 -48 -343 -84 -153 -52 -396 -172 -502 -248
-127 -90 -309 -279 -359 -371 -73 -137 -149 -404 -192 -682 -27 -171 -22 -368
16 -623 14 -98 28 -182 31 -186 2 -4 0 -10 -6 -14 -25 -15 -85 -124 -287 -515
-60 -116 -195 -406 -258 -555 -124 -289 -203 -548 -275 -900 -41 -199 -35
-185 -79 -185 -53 0 -180 -34 -238 -63 -58 -31 -117 -89 -138 -139 -26 -63
-20 -155 15 -224 16 -33 41 -71 54 -83 l25 -24 -39 -28 c-115 -83 -156 -220
-104 -344 12 -30 19 -35 49 -35 l34 0 -24 53 c-34 72 -33 128 5 194 27 47 102
113 129 113 15 0 40 40 34 55 -2 7 -22 25 -43 38 -53 36 -90 113 -90 189 0
114 49 163 222 222 58 20 96 26 157 26 79 0 81 1 76 23 -8 29 65 379 115 555
69 243 138 427 265 707 103 227 335 685 404 799 55 89 56 93 56 166 0 41 -10
148 -22 238 -27 194 -30 387 -8 535 33 217 106 490 161 598 64 129 250 328
391 420 162 106 421 217 614 264 89 21 105 22 256 14 255 -13 444 -60 658
-163 282 -135 514 -298 565 -395 10 -20 30 -58 44 -86 34 -67 73 -227 87 -356
18 -175 -2 -341 -67 -550 l-36 -115 32 -65 c18 -35 63 -116 101 -179 76 -127
117 -234 126 -326 9 -96 -2 -130 -57 -185 -81 -80 -93 -84 -265 -84 -180 0
-253 17 -574 125 -243 82 -292 88 -407 44 -78 -29 -94 -41 -136 -102 -112
-162 -81 -376 74 -519 66 -60 92 -70 235 -93 224 -36 241 -43 418 -176 214
-160 448 -276 643 -319 59 -12 119 -27 134 -33 52 -21 250 -42 392 -42 168 0
288 18 436 66 115 38 303 136 363 190 20 19 41 34 45 34 11 0 28 -117 43 -280
15 -165 6 -653 -15 -830 -32 -274 -84 -541 -140 -722 l-15 -48 30 0 c36 0 37
3 83 188 51 202 95 485 116 747 25 311 2 836 -41 947 -10 25 -8 30 22 55 92
75 215 205 253 268 66 107 211 381 245 462 17 40 31 83 31 97 0 14 11 55 24
93 99 276 93 561 -19 870 -43 120 -139 313 -195 391 -61 86 -145 173 -224 231
-129 95 -305 169 -419 176 -34 2 -136 13 -227 25 -194 26 -353 23 -565 -11
-71 -11 -159 -25 -194 -30 -35 -5 -91 -21 -125 -35 -33 -14 -67 -26 -74 -27
-15 -2 -52 100 -52 141 0 45 -101 167 -215 259 -151 122 -469 294 -653 353
-121 39 -253 68 -344 76 -40 3 -92 12 -116 20 -42 14 -65 15 -127 7z m2460
-828 c66 -9 165 -27 220 -40 55 -13 110 -22 121 -19 55 14 300 -138 397 -246
59 -65 133 -179 164 -249 13 -31 37 -83 53 -116 38 -78 84 -220 105 -320 40
-196 26 -398 -40 -595 -19 -57 -35 -112 -35 -123 0 -30 -37 -110 -154 -332
-107 -203 -115 -214 -210 -312 -93 -97 -168 -155 -279 -218 -27 -14 -51 -33
-54 -41 -16 -43 -272 -148 -434 -179 -170 -32 -436 -27 -507 9 -15 7 -58 17
-95 21 -120 12 -269 52 -376 99 -133 59 -296 156 -372 222 -61 53 -168 121
-233 148 -35 14 -153 41 -319 70 -60 11 -73 18 -116 60 -90 88 -131 200 -110
294 15 68 46 124 82 149 131 91 161 90 444 -6 261 -88 393 -120 543 -128 156
-8 210 5 308 71 103 70 127 115 126 236 -2 140 -40 251 -146 425 -30 50 -66
115 -81 145 l-26 56 20 59 c60 179 73 261 74 455 0 102 -4 209 -8 238 l-8 52
62 30 c35 16 83 32 108 36 25 3 80 12 121 20 232 45 455 54 655 29z"/>
<path d="M4886 4131 c-44 -48 -69 -230 -42 -296 17 -38 18 -39 32 -20 19 25
30 70 43 176 20 154 11 189 -33 140z"/>
<path d="M4573 4087 c-40 -37 -38 -57 6 -57 38 0 81 35 81 66 0 36 -42 32 -87
-9z"/>
<path d="M5014 3915 c-4 -9 -4 -52 -2 -95 6 -105 42 -176 149 -295 78 -86 191
-244 204 -284 11 -36 75 -27 75 10 0 39 -113 205 -224 328 -93 102 -123 163
-133 267 -8 77 -9 79 -36 82 -18 2 -29 -2 -33 -13z"/>
<path d="M4856 3581 c-22 -24 -20 -49 9 -107 30 -60 86 -119 182 -191 99 -73
138 -116 184 -200 44 -80 62 -98 84 -89 31 11 29 39 -9 113 -47 90 -108 160
-206 232 -103 76 -154 131 -181 195 -25 62 -40 73 -63 47z"/>
<path d="M5520 2993 c-137 -50 -298 -128 -332 -161 -40 -38 -35 -46 25 -39 76
9 397 169 397 198 0 10 -65 11 -90 2z"/>
<path d="M5615 2839 c-138 -30 -240 -64 -300 -100 -30 -18 -55 -37 -55 -41 0
-4 21 -8 48 -8 78 0 417 126 414 155 -1 15 -11 15 -107 -6z"/>
<path d="M5835 2784 c-217 -57 -347 -101 -407 -139 -32 -20 -58 -41 -58 -46 0
-22 123 5 325 72 116 38 228 80 250 92 38 21 52 47 30 53 -5 1 -68 -13 -140
-32z"/>
<path d="M3293 4292 c-7 -4 -19 -29 -27 -54 -26 -89 -112 -190 -223 -264 -29
-19 -108 -61 -175 -93 -68 -32 -135 -71 -149 -87 -28 -30 -57 -99 -47 -110 8
-8 45 12 94 52 22 18 93 57 158 88 141 66 221 122 303 209 90 97 142 217 108
251 -18 18 -25 19 -42 8z"/>
<path d="M3534 4276 c-9 -23 1 -42 32 -63 29 -18 24 -18 279 -12 99 2 135 -1
204 -20 74 -20 86 -20 99 -7 34 34 -11 68 -123 91 -60 12 -121 16 -245 14 -91
-2 -182 1 -202 5 -31 7 -39 5 -44 -8z"/>
<path d="M3448 4203 c-10 -2 -18 -8 -18 -12 0 -3 -27 -40 -61 -81 -63 -78 -94
-128 -85 -137 13 -13 75 25 133 80 60 57 62 58 85 43 28 -20 57 -21 64 -1 8
19 -29 78 -61 99 -25 16 -28 17 -57 9z"/>
<path d="M3491 3978 c-39 -11 -31 -26 14 -30 32 -2 55 7 55 21 0 14 -33 18
-69 9z"/>
<path d="M4027 3929 c-16 -12 -56 -25 -96 -32 -57 -8 -81 -7 -140 7 -53 13
-75 14 -91 6 -24 -13 -25 -23 -4 -45 11 -11 13 -19 6 -28 -8 -9 -2 -19 24 -36
38 -26 211 -81 231 -74 23 9 14 41 -19 67 l-33 26 30 0 c81 0 175 58 175 106
0 20 -5 24 -27 24 -16 0 -40 -10 -56 -21z"/>
<path d="M3309 3768 c-8 -7 -39 -44 -69 -82 -107 -139 -203 -201 -380 -243
-28 -7 -36 -14 -38 -35 -2 -20 2 -28 18 -33 69 -22 253 55 358 151 86 77 164
186 160 221 -3 31 -25 40 -49 21z"/>
<path d="M3372 3658 c-21 -27 -81 -156 -87 -190 -9 -48 6 -54 46 -21 34 29 89
133 89 170 0 48 -25 69 -48 41z"/>
<path d="M2460 3450 c-88 -25 -276 -149 -310 -205 -12 -20 -20 -38 -17 -41 3
-3 23 0 45 7 44 13 299 183 316 211 14 24 -2 37 -34 28z"/>
<path d="M2564 3387 c-92 -48 -212 -134 -249 -179 -29 -34 -59 -88 -52 -94 22
-23 407 265 407 305 0 19 -22 12 -106 -32z"/>
<path d="M2676 3336 c-127 -67 -189 -109 -225 -155 -32 -40 -32 -41 -9 -41 12
1 39 7 58 13 48 18 276 172 284 192 18 48 -2 46 -108 -9z"/>
<path d="M1885 3092 c-74 -46 -110 -120 -103 -207 5 -58 27 -94 84 -134 l34
-24 -53 -34 c-76 -50 -107 -82 -133 -138 -39 -81 -27 -146 37 -199 64 -54 114
-70 226 -70 82 -1 104 -4 109 -16 3 -8 30 -83 59 -167 30 -83 72 -194 93 -245
22 -51 56 -146 76 -210 58 -187 121 -293 214 -361 96 -71 297 -168 407 -196
70 -18 476 -90 575 -102 180 -21 298 16 337 108 13 33 9 83 -8 83 -5 0 -31
-22 -57 -49 -62 -64 -100 -75 -221 -68 -101 7 -437 63 -581 97 -159 39 -359
140 -446 226 -59 58 -111 158 -145 279 -12 44 -45 134 -71 200 -27 66 -76 197
-109 290 -70 199 -92 231 -149 215 -47 -13 -134 -13 -181 1 -21 7 -54 25 -73
41 -44 36 -48 78 -13 129 28 42 106 101 155 118 56 19 80 32 86 48 8 21 -10
50 -36 59 -12 3 -44 20 -71 37 -59 36 -80 76 -67 130 16 71 47 97 117 97 71 0
139 -35 195 -100 26 -30 51 -50 64 -50 13 0 41 22 71 55 46 49 57 56 101 55
11 0 20 -42 32 -149 6 -53 18 -132 26 -176 47 -239 187 -540 277 -596 45 -27
223 -83 342 -107 55 -11 138 -34 184 -51 47 -17 95 -31 108 -31 13 0 40 15 60
34 21 18 55 41 76 49 43 19 56 42 34 64 -23 24 -87 8 -135 -33 -22 -19 -44
-34 -49 -34 -5 0 -36 11 -69 24 -32 13 -122 38 -199 54 -164 35 -304 84 -332
115 -105 115 -218 427 -243 667 -20 202 -42 250 -111 250 -53 0 -99 -21 -136
-60 l-31 -33 -49 43 c-65 58 -123 82 -208 87 -57 3 -76 1 -100 -15z"/>
<path d="M3805 1509 c-75 -53 -93 -124 -52 -205 30 -59 70 -99 91 -91 24 10
19 49 -14 112 -28 54 -29 58 -14 86 8 17 26 34 40 40 53 20 163 -58 216 -153
35 -62 46 -65 100 -29 78 53 133 72 208 74 80 2 111 -14 147 -79 46 -80 35
-177 -25 -224 -29 -23 -54 -25 -117 -8 -39 10 -47 10 -61 -4 -21 -21 -11 -49
23 -69 44 -24 85 -92 91 -148 4 -43 1 -52 -28 -84 -44 -51 -127 -72 -184 -46
-13 6 -47 42 -75 80 -29 38 -58 69 -66 69 -8 0 -22 -11 -31 -25 -9 -14 -22
-25 -29 -25 -7 0 -30 -14 -51 -31 -74 -60 -292 -142 -474 -179 -87 -18 -137
-20 -435 -20 -380 0 -468 9 -669 66 -66 19 -168 57 -226 85 -86 43 -116 64
-175 124 -103 105 -245 340 -245 405 0 39 -14 60 -41 60 -22 0 -29 -20 -29
-83 0 -44 8 -64 61 -156 173 -298 295 -402 572 -490 233 -74 371 -91 747 -91
l267 0 5 -72 c5 -64 0 -123 -30 -335 l-9 -63 28 0 c21 0 30 6 34 23 9 42 48
332 52 393 l5 62 48 6 c160 21 482 136 555 198 47 40 64 38 109 -10 22 -24 52
-50 67 -57 103 -54 261 2 310 109 24 53 24 83 -2 157 -12 33 -19 61 -18 62 2
1 22 11 44 22 90 45 133 194 87 299 -51 114 -113 156 -230 156 -77 0 -144 -18
-202 -55 l-36 -23 -65 72 c-37 39 -86 81 -111 94 -58 29 -123 29 -163 1z"/>
</g>
</svg>
