<?xml version="1.0" encoding="UTF-8" standalone="no"?>
<!-- Created with Inkscape (http://www.inkscape.org/) -->

<svg
   width="85.556892mm"
   height="285.08899mm"
   viewBox="0 0 85.556892 285.08899"
   version="1.1"
   id="svg1"
   xml:space="preserve"
   xmlns="http://www.w3.org/2000/svg"
   xmlns:svg="http://www.w3.org/2000/svg"><defs
     id="defs1" /><g
     id="layer1"
     transform="translate(-3.4073502,-3.0684203)"><path
       style="display:inline;fill:none;fill-opacity:1;stroke:#000000;stroke-width:1.165"
       d="M 49.222055,3.1660445 C 50.507303,10.726339 47.361942,19.674049 41.16995,25.205933 28.211366,37.85828 19.513236,40.835555 18.165849,51.035275 16.818462,61.234995 36.221173,77.447238 40.229226,76.317552 45.741323,74.863428 55.164356,68.053963 58.267378,62.582599 57.719232,51.211697 51.10091,33.833876 45.634433,35.031403 40.167955,36.22893 31.790645,56.302624 31.70412,63.493705 37.627245,74.41797 55.153483,81.842918 62.61512,92.899723 71.882546,94.134801 88.270501,83.584253 88.380702,81.24295 88.490904,78.901646 73.441572,69.954278 64.604053,68.902889 46.97556,82.771126 41.840292,90.32672 33.632122,97.060215 c -3.10331,9.454175 5.927219,26.698575 10.78226,26.623715 4.85504,-0.0749 8.770678,-15.26759 9.240685,-25.31807 C 44.742408,89.86213 38.808564,82.80818 28.658045,74.389711 20.351147,74.65771 3.6651493,77.86944 3.9946313,84.114506 4.3241133,90.359572 27.319368,96.651733 30.163028,94.018117 34.365583,83.324619 41.42294,83.726444 44.833262,79.489944 c 1.829009,10.748412 17.691963,16.182243 17.088126,30.994786 -13.522125,26.16201 -19.847605,36.15285 -23.795162,54.09494 -0.642112,21.45171 12.879659,34.69602 14.53498,54.18967 -2.125336,21.99891 -6.358459,48.14647 -11.053303,69.26163"
       id="path4" /></g></svg>
