<?xml version="1.0" encoding="UTF-8" standalone="no"?>
<!-- Created with Inkscape (http://www.inkscape.org/) -->

<svg
   width="86.370903mm"
   height="280.83649mm"
   viewBox="0 0 86.370903 280.83649"
   version="1.1"
   id="svg1"
   inkscape:version="1.3.2 (091e20e, 2023-11-25, custom)"
   sodipodi:docname="lightpath.svg"
   inkscape:export-filename="lightstarpath.svg"
   inkscape:export-xdpi="96"
   inkscape:export-ydpi="96"
   xml:space="preserve"
   xmlns:inkscape="http://www.inkscape.org/namespaces/inkscape"
   xmlns:sodipodi="http://sodipodi.sourceforge.net/DTD/sodipodi-0.dtd"
   xmlns="http://www.w3.org/2000/svg"
   xmlns:svg="http://www.w3.org/2000/svg"><sodipodi:namedview
     id="namedview1"
     pagecolor="#ffffff"
     bordercolor="#000000"
     borderopacity="0.25"
     inkscape:showpageshadow="2"
     inkscape:pageopacity="0.0"
     inkscape:pagecheckerboard="0"
     inkscape:deskcolor="#d1d1d1"
     inkscape:document-units="mm"
     inkscape:zoom="1.5332452"
     inkscape:cx="-68.808304"
     inkscape:cy="573.29383"
     inkscape:window-width="2560"
     inkscape:window-height="1494"
     inkscape:window-x="-11"
     inkscape:window-y="-11"
     inkscape:window-maximized="1"
     inkscape:current-layer="layer1" /><defs
     id="defs1" /><g
     inkscape:label="Layer 1"
     inkscape:groupmode="layer"
     id="layer1"
     transform="translate(-2.7050506,-3.9520032)"><path
       style="color:#000000;display:inline;opacity:1;fill:#000000;-inkscape-stroke:none"
       d="m 48.633104,3.973388 c -2.004355,0.3961667 0.731904,10.628988 -5.603267,17.652977 -4.611634,5.113053 -7.808512,8.119932 -12.189845,11.310646 -4.403711,3.207011 -14.741882,10.815773 -14.611369,19.906981 0.08107,5.647123 7.743153,13.697305 11.723234,16.937114 4.036621,3.285832 9.693598,8.575081 12.473926,8.810165 2.090284,0.176738 1.009336,-2.029993 2.872197,-1.745624 2.259947,0.526504 3.048294,1.271366 3.306913,2.793303 0.258619,1.521936 -0.684986,0.745558 -3.455763,0.366576 -2.567606,-0.351192 -2.586417,2.309379 -3.894889,1.870233 -1.308472,-0.439146 -3.353152,-1.819871 -4.847314,-3.69333 -2.145035,-2.689559 -3.785487,-3.88633 -5.833445,-4.534286 -4.095121,-1.295661 -10.784625,1.330179 -14.764666,2.417709 -3.9800413,1.08753 -11.0873783,3.285358 -11.1037419,7.670476 -0.016364,4.385118 8.5359099,7.338354 11.7046429,8.588839 3.234503,1.276441 8.211711,3.192411 12.172129,3.211845 4.18308,0.02052 5.468817,-2.766696 7.725858,-5.822399 1.610471,-2.180341 2.083993,-2.619325 3.754091,-2.825809 2.60353,-0.32189 6.042103,2.225854 1.484771,3.472701 -4.557332,1.246846 -6.135892,4.33413 -6.885538,7.091077 -0.749646,2.756948 -1.117452,4.734488 2.726027,16.674088 1.297839,4.03168 3.592865,10.49476 8.152468,10.51935 4.559603,0.0246 7.002603,-6.01265 8.1521,-10.34639 3.629929,-13.68525 4.08627,-16.56623 1.658064,-18.369785 -2.920917,-2.169517 -7.269378,-5.499714 -6.242401,-6.759926 1.131813,-1.388858 2.757472,0.453782 4.120989,1.834135 1.082184,1.095546 9.373682,10.880256 8.385656,17.367866 -1.046923,6.87435 -2.704204,10.39203 -12.591183,28.01704 -9.88698,17.62501 -11.099385,21.46106 -11.468873,27.45662 -0.656551,10.65363 9.944939,32.74828 13.923232,45.70952 5.463607,17.80037 -11.671289,75.54558 -7.352978,75.23211 4.318311,-0.31347 11.517983,-43.24224 11.4503,-70.04551 -0.03307,-13.09611 -13.263463,-24.78969 -12.955947,-50.55912 0.197072,-16.51442 16.736801,-39.62262 22.05906,-50.56742 5.322259,-10.9448 -10.644696,-22.358337 -13.953457,-27.691676 -3.308761,-5.333339 3.060594,-3.915429 5.427256,-1.137007 2.366661,2.778421 3.823732,4.878771 5.78869,6.910718 3.704612,3.830909 10.859482,0.935795 15.199322,-1.036527 6.397231,-2.907347 13.750913,-6.27562 13.930758,-8.914721 0.269097,-3.948808 -8.837527,-7.468188 -13.009397,-9.515862 -3.486168,-1.711113 -8.073567,-4.701981 -12.16137,-4.055362 -4.087804,0.646619 -5.805636,5.506701 -9.238505,8.174897 -4.399406,3.419436 -5.626237,1.168106 -8.128487,0.388411 C 42.245857,75.40237 58.633661,67.82796 58.780988,62.532359 58.928314,57.236758 55.285869,47.323365 54.796718,45.910619 53.391313,41.851582 51.6257,34.633711 46.435427,34.358815 41.220061,34.082589 38.346388,42.37617 36.361698,46.463953 c -1.686208,3.47301 -7.136025,13.723895 -5.405902,17.956453 1.569881,3.840543 8.94502,8.524753 7.262312,10.146933 C 36.000809,76.70488 19.658252,60.122451 19.695043,52.707896 19.725793,46.510756 25.20159,41.017864 34.7498,32.440125 45.547133,22.740223 47.545543,20.128009 49.970099,14.182395 52.185643,8.74933 50.637459,3.5772213 48.633104,3.973388 Z m -2.367843,32.439215 c 3.145695,-0.06129 4.588067,1.447648 7.093014,9.7209 2.512165,8.297091 4.062475,12.817502 3.665164,16.087369 -0.397311,3.269867 -4.347168,5.42526 -6.975189,7.681114 -2.628021,2.255854 -6.053919,4.263994 -8.327227,4.052572 -2.273307,-0.211422 0.404318,-1.881495 -2.220662,-4.732543 -2.62498,-2.851023 -4.101758,-2.498569 -5.952534,-5.825965 -1.69761,-3.052029 1.582537,-9.399096 4.635836,-17.169937 3.408699,-8.675359 4.935903,-9.752218 8.081598,-9.81351 z M 65.182801,69.8443 c 2.718845,-0.09768 6.595604,2.138658 9.923936,3.642461 10.729878,4.847961 11.804269,5.999086 11.873124,7.940768 0.0685,1.931597 -1.329493,2.367948 -10.737021,6.952015 -3.342155,1.628553 -12.05729,5.255305 -14.467783,2.360517 -2.419996,-2.9062 -3.24219,-4.299473 -5.231986,-6.458224 -1.989796,-2.158751 -3.296716,-3.389539 -2.417215,-4.316637 0.879501,-0.927098 2.224917,0.176166 3.745704,-1.509387 1.520787,-1.685554 4.592397,-8.513832 7.311241,-8.611513 z m -37.855057,5.473839 c 3.352584,0.869398 4.096328,1.686581 6.55222,4.628698 1.549711,1.856529 4.013463,3.171751 4.054885,4.294984 0.04142,1.123233 -1.677798,1.903722 -3.260102,1.52889 -5.351128,-1.26763 -1.121941,8.616574 -9.128554,7.831327 -2.566302,-0.25169 -5.75014,-0.599572 -8.654747,-1.788395 C 8.9656649,88.569711 4.5734371,86.235866 4.8501514,83.72725 5.1268657,81.218633 7.6666262,79.583695 15.403569,77.187775 c 3.60454,-1.116227 8.689077,-2.708566 11.924175,-1.869636 z m 15.608437,6.876344 c 1.338743,-0.298494 2.38364,-0.351323 2.994386,0.805522 0.610745,1.156846 -0.614306,4.29864 -1.961496,4.265572 -1.34719,-0.03307 -3.64216,-2.468771 -3.649014,-3.248416 -0.0069,-0.779645 1.59198,-1.594329 2.616124,-1.822678 z m 8.04962,29.139847 c -1.124519,4.08818 -3.928997,11.41656 -7.292539,11.52348 -3.363542,0.10692 -5.751937,-5.18314 -6.887502,-9.05927 -3.315183,-11.31603 -4.11764,-15.23986 0.42543,-19.237079 3.482094,-3.063719 6.716201,-3.943696 8.063629,-2.874115 1.347428,1.069582 0.006,3.02402 3.639053,4.464142 3.633032,1.440121 5.152586,3.910432 2.051929,15.182842 z"
       id="path1"
       sodipodi:nodetypes="zssssszcszsszzsssszzszssssscsszsszzzsssszsszsssssssszzszzzzsszzsssszzzzsszssszssszzzsszsszzs"
       inkscape:export-filename="lightstar.svg"
       inkscape:export-xdpi="96"
       inkscape:export-ydpi="96" /></g></svg>
