<?xml version="1.0" encoding="UTF-8" standalone="no"?>
<!-- Created with Inkscape (http://www.inkscape.org/) -->

<svg
   width="92mm"
   height="294mm"
   viewBox="0 0 92 294"
   version="1.1"
   id="svg1"
   inkscape:version="1.3.2 (091e20e, 2023-11-25, custom)"
   sodipodi:docname="path.svg"
   xmlns:inkscape="http://www.inkscape.org/namespaces/inkscape"
   xmlns:sodipodi="http://sodipodi.sourceforge.net/DTD/sodipodi-0.dtd"
   xmlns="http://www.w3.org/2000/svg"
   xmlns:svg="http://www.w3.org/2000/svg">
  <sodipodi:namedview
     id="namedview1"
     pagecolor="#ffffff"
     bordercolor="#000000"
     borderopacity="0.25"
     inkscape:showpageshadow="2"
     inkscape:pageopacity="0.0"
     inkscape:pagecheckerboard="0"
     inkscape:deskcolor="#d1d1d1"
     inkscape:document-units="mm"
     inkscape:zoom="0.76662259"
     inkscape:cx="356.10743"
     inkscape:cy="702.43168"
     inkscape:window-width="2560"
     inkscape:window-height="1494"
     inkscape:window-x="-11"
     inkscape:window-y="-11"
     inkscape:window-maximized="1"
     inkscape:current-layer="layer1" />
  <defs
     id="defs1" />
  <g
     inkscape:label="Layer 1"
     inkscape:groupmode="layer"
     id="layer1">
    <path
       style="fill:none;stroke:#000000;stroke-width:0.872703"
       d="M 46.924608,3.3628687 46.425825,28.586885 31.844924,71.251964 40.613198,80.929066 51.782485,69.799711 46.32599,40.312727 37.582099,69.742209 c 0,0 5.112324,5.899035 8.930345,9.596896 4.601534,4.456716 10.104574,9.646606 10.104574,9.646606 L 89.095728,84.131849 57.607613,77.016445 37.061953,95.697041 42.94623,129.61954 50.134431,95.640615 C 42.666674,88.796628 39.119468,84.698308 31.443486,78.098109 L 3.1419843,83.74947 33.696477,91.749524 44.169685,82.815591 56.571359,95.257832 43.767951,148.45827 c 0,0 -0.302938,94.19173 0.6412,141.71898"
       id="path1"
       sodipodi:nodetypes="cccccccsccccccccccccc" />
  </g>
</svg>
